<svg height="32" color="var(--mui-palette-primary-main)" fill="none" viewBox="0 0 32 50" xmlns="http://www.w3.org/2000/svg" aria-hidden="true"><path d="M31.5104 19.7579L21.8869 15.4979L18.9112 0.474774C18.8479 0.149167 18.459 -0.113127 18.0972 0.0496763L9.25153 4.02931C9.10682 4.09262 8.98924 4.21925 8.93497 4.37301L0.17977 29.3271C0.0712341 29.6256 0.261171 29.9512 0.496332 30.0598L10.1198 34.3198L13.1317 49.5238C13.204 49.8946 13.602 50.1026 13.9457 49.9489L22.7913 45.9693C22.9089 45.915 23.0627 45.7612 23.1079 45.6256L31.8179 20.4815C31.9174 20.1921 31.7817 19.8755 31.5013 19.7489L31.5104 19.7579ZM9.95701 5.00613L17.3284 1.68675L9.11586 25.1033L1.74449 28.4227L9.95701 5.00613ZM9.58618 26.1887L18.052 29.9331L10.6444 33.2706L2.17863 29.5261L9.58618 26.1887ZM11.3137 34.2565L19.065 30.7652L21.8959 45.0919L14.1447 48.5832L11.3137 34.2565Z" fill="currentColor"></path></svg>