<svg height="32" color="var(--mui-palette-primary-main)" fill="none" viewBox="0 0 60 58" xmlns="http://www.w3.org/2000/svg" aria-hidden="true"><path d="m18.453 41.029 14.02 3.13v-4.95l-14.02-3.13v4.95Z" fill="currentColor"></path><path d="M60.943 46.739v-32.77c0-3.51-2.6-6.95-5.8-7.66l-24.3-5.41c-1.24-.28-2.44-.11-3.46.44-.01 0-.02 0-.03.01l-5.52 3.08c-1.61.9-2.58 2.71-2.58 4.85v8.5l-6.95-1.55c-1.3-.29-2.56-.08-3.5.46l-5.52 3.08c-1.61.9-2.58 2.71-2.58 4.85v32.77c0 .35.26.58.51.63.55.12 1.1.18 1.64.18 1.12 0 2.19-.27 3.15-.8l5.49-3.06h.02v-.02l.01-.01c.3-.17.58-.36.86-.57.46-.37.86-.81 1.21-1.29l17.2 3.83c.4.09.8.13 1.19.13.82 0 1.6-.2 2.3-.59l5.52-3.08c1.98-1.1 2.58-3.36 2.58-4.85v-8.49l4.22.94c.25 4.69 3.74 9.16 8.01 10.11.17.04.32 0 .46-.07l5.52-3.08c.22-.12.33-.36.33-.57l.02.01Zm-26.02-36.43c.65-.59 1.47-.89 2.38-.89.31 0 .63.04.96.11 1.55.35 3 1.46 3.98 3.06.11.18.3.29.51.31.21.02.41-.07.55-.23.89-1.07 2.23-1.5 3.71-1.17 1.33.3 2.59 1.17 3.56 2.45 1.99 2.64 2.06 6.18.16 7.89l-7.68 6.92-7.95-10.55c-1.98-2.64-2.06-6.18-.17-7.89l-.01-.01Zm-14.38-1.02c0-1.66.71-3.05 1.91-3.72l2.66-1.48c-.23.65-.35 1.5-.35 2.12v18.59c0 3.52 2.6 6.96 5.79 7.67l20.4 4.54-3.81 2.12-21.82-4.86c-.3-.07-.6-.17-.88-.3l3.65-2.04c-1.01-.54-1.89-1.37-2.56-2.37l-3.77 2.1c-.75-1.11-1.22-2.44-1.22-3.8V9.289Zm-18.54 15.33c0-1.66.71-3.05 1.91-3.72l2.66-1.48c0 .02-.01.05-.02.07-.23.68-.33 1.47-.33 2.06v32.39l-4.22 2.35v-31.67Zm39.09 23.28c0 2.86-2.04 4.58-4.49 4.04l-22.07-4.91a.645.645 0 0 0-.79.63c0 3.75-2.51 6.63-6.22 6.1v-20.1l3.66.81v-4.95l-3.66-.81v-7.16c0-2.67 1.87-4.62 4.49-4.04l7.23 1.61v7.25l-8.06-1.79v4.95l8.98 2c1.03 1.99 2.83 3.57 4.87 4.02l16.06 3.57v8.78Zm13.58 1.23c-2.56-.66-4.77-2.78-5.92-5.39l3.69-2.06c-.34-.76-.59-1.56-.75-2.38l-3.66 2.04c-.06-.38-.11-.76-.13-1.14l3.8-2.12.47-.26s.02.08.02.11c.46 3.97 3.18 7.54 6.45 8.95.01 0 .02.01.03.02l-4 2.23Z" fill="currentColor"></path></svg>