<svg height="32" color="var(--mui-palette-primary-main)" fill="none" viewBox="0 0 60 60" xmlns="http://www.w3.org/2000/svg" aria-hidden="true"><path d="M29.624.942c-16.16 0-29.26 13.1-29.26 29.26 0 16.16 13.1 29.26 29.26 29.26 16.16 0 29.26-13.1 29.26-29.26 0-16.16-13.1-29.26-29.26-29.26Zm27.55 24.88h.07c.24 1.47.35 2.96.35 4.45-.23-1.48-.6-2.97-1.11-4.45h.7-.01Zm-9.67-16.91c2.93 2.25 4.94 4.76 6.66 7.92h-1.49v1.68a32.89 32.89 0 0 0-5.96-6.36c.5-1 .78-1.96.81-2.84 0-.14-.02-.27-.03-.4h.01Zm.68 12.42h-4.49v1.96c-1-1.45-2.07-2.85-3.19-4.19 2.5-2 4.38-3.96 5.56-5.8 2.62 2.18 4.88 4.74 6.62 7.56v.47h-4.5Zm4.45 4.49c-1.2 1.44-2.77 2.96-4.67 4.49h-.18c-.73-1.52-1.55-3.02-2.45-4.49h7.3Zm-18.58-22.12c4.33.41 8.37 1.83 11.82 4.07.25.44.38.93.36 1.5-.02.63-.22 1.33-.56 2.07a34.613 34.613 0 0 0-11.89-5.86c.25-.64.34-1.23.27-1.78Zm10.99 8.78c-1.1 1.74-2.94 3.67-5.39 5.62-2.87-3.27-6.08-6.14-9.38-8.35 1.27-1.06 2.25-2.11 2.89-3.1 4.33 1.12 8.39 3.15 11.87 5.83h.01Zm-36.36 19.09c1.11 0 2.3-.08 3.54-.24v3.48h4.49v-4.33l.25-.06c.95 4.45 2.34 8.89 4.11 12.92-3.83.93-7.39 1.38-10.37 1.23-1.75-4-2.63-8.48-2.68-13.02.22 0 .43.02.66.02Zm-.64-1.33c.12-4.39 1.02-8.79 2.72-12.81 1.41.04 3.06-.17 4.82-.57-.09 3.83.31 8.05 1.13 12.31-3.19.78-6.16 1.16-8.68 1.08l.01-.01Zm8.85-13.71c1.9-.52 3.89-1.25 5.83-2.14 1.67 3.16 3.53 6.83 5.42 10.68-3.37 1.57-6.85 2.86-10.17 3.76-.82-4.26-1.21-8.49-1.08-12.3Zm1.34 13.57c3.42-.92 7.01-2.25 10.48-3.87 1.98 4.06 3.97 8.28 5.8 12.29-4.04 1.89-8.2 3.42-12.16 4.48-1.78-4.02-3.18-8.46-4.12-12.9Zm5.66-16.27c1.91-.95 3.72-2.05 5.31-3.23 3.31 2.16 6.53 5.02 9.41 8.29-2.76 2.07-5.95 3.99-9.3 5.62-1.89-3.85-3.75-7.52-5.42-10.68Zm-15.1-2.27c2.57-2.87 5.73-5.21 9.35-6.84 3.39-1.53 6.98-2.36 10.6-2.47 1.36-.04 3.61.07 4.01 1.38.31 1.01-.56 3.02-3.92 5.64-.01 0-.02.02-.03.03-5.28 4.1-13.51 7.14-18.39 6.82-1.54-.11-2.54-.55-2.84-1.25-.32-.76.13-1.96 1.25-3.3l-.03-.01Zm-5.3 8.75c.72-1.91 1.64-3.71 2.73-5.38.04.16.08.3.13.43a29.866 29.866 0 0 0-3.02 5.39c.05-.15.1-.3.16-.44Zm3.71-3.88c.48.38 1.19.7 2.22.88-1.66 4.05-2.55 8.45-2.67 12.86-1.98-.22-3.43-.8-4.18-1.69-.02-.02-.03-.04-.04-.06.57-4.19 2.15-8.3 4.68-11.99h-.01Zm-2.83 25.64c-.14-.32-.27-.64-.4-.97 0-.05-.03-.09-.04-.14a.658.658 0 0 0-.13-.28c-1.26-3.4-1.73-7.03-1.45-10.66 1.03.76 2.5 1.24 4.38 1.44.03 4.5.88 8.96 2.52 12.98-2.45-.33-4.12-1.15-4.88-2.37Zm4 6.23c-.57-.65-1.12-1.32-1.62-2.02-.04-.05-.07-.1-.11-.16-.27-.39-.52-.81-.77-1.22 1 .44 2.29.78 3.97.93.4.86.84 1.68 1.3 2.47h-2.78.01Zm12.84 0h-8.54c-.48-.76-.93-1.56-1.34-2.39h.49c2.89 0 6.25-.5 9.79-1.38.62 1.34 1.27 2.6 1.94 3.77h-2.34Zm13.49 4.49h-4.49v-4.49h4.49v4.49Zm0-8.99h-8.99v4.49h-.66c-.74-1.25-1.46-2.63-2.16-4.1 3.85-1.05 7.89-2.53 11.8-4.33v3.94h.01Zm-4.82-18.13c3.45-1.69 6.74-3.65 9.58-5.79 1.53 1.82 2.95 3.75 4.22 5.74v.2h.12a48.85 48.85 0 0 1 2.53 4.49h-7.15v4.49h2.29c-1.86 1.12-3.8 2.18-5.8 3.16-1.83-4.01-3.82-8.23-5.8-12.3l.01.01Zm18.3 9.14v4.49h-11.89c-.02-.05-.05-.11-.07-.16 2.69-1.31 5.29-2.77 7.72-4.33h4.25v-.2c.02.07.05.14.07.2h-.08Zm8.38 0h-6.92c-.04-.11-.09-.23-.13-.34-.15-.42-.3-.84-.47-1.26-.08-.21-.18-.42-.26-.63-.13-.31-.25-.62-.39-.94 2.51-1.99 4.49-3.95 5.89-5.82h.8c1.1 3 1.59 6.04 1.48 8.99Z" fill="currentColor"></path></svg>