<svg height="32" color="var(--mui-palette-primary-main)" fill="none" viewBox="0 0 56 58" xmlns="http://www.w3.org/2000/svg" aria-hidden="true"><path d="M10.68 52.793c3.21 2.84 7.43 4.3 12.08 4.3 3 0 6.19-.61 9.39-1.84 13.74-5.27 24.05-20.38 22.98-33.67-.41-5.08-2.4-9.34-5.77-12.33-3.23-2.87-5.33-4.85-6.93-5.86-5.21-3.28-12.26-3.6-19.36-.87C9.35 7.803-.96 22.913.11 36.203c.4 5.02 2.4 9.24 5.67 12.2l4.9 4.39Zm1.89-30.93 2.53-.97-.2-2.49c-.05-.68.47-1.45 1.16-1.72l6.33-2.43-.2-2.49c-.05-.68.47-1.45 1.16-1.72l1.28-.49c.7-.27 1.3.07 1.35.75l.2 2.49 6.33-2.43c.7-.27 1.31.06 1.36.75l.2 2.49 2.53-.97c.7-.27 1.31.07 1.36.75l.1 1.26c.05.68-.47 1.45-1.16 1.72l-1.28.49c-.7.27-1.3-.07-1.35-.75l-.2-2.49-18.98 7.28.6 7.44 17.72-6.8c.7-.27 1.31.07 1.36.75l.2 2.49 2.53-.97c.7-.27 1.3.06 1.36.75l.4 4.98c.05.68-.47 1.45-1.16 1.72l-2.53.97.2 2.49c.05.68-.47 1.45-1.16 1.72l-6.33 2.43.2 2.49c.05.68-.46 1.45-1.16 1.71l-1.28.49c-.7.27-1.31-.07-1.36-.75l-.2-2.49-6.33 2.43c-.7.27-1.31-.07-1.36-.75l-.2-2.49-2.53.97c-.7.27-1.31-.07-1.36-.75l-.1-1.26c-.05-.68.47-1.45 1.16-1.72l1.28-.49c.7-.27 1.3.07 1.35.75l.2 2.49 18.98-7.28-.6-7.44-17.72 6.8c-.7.27-1.31-.07-1.36-.75l-.2-2.49-2.53.97c-.7.27-1.31-.07-1.36-.75l-.4-4.98c-.05-.68.47-1.45 1.16-1.72l.01.01Zm28.04 26.99-2.64-2.31c-1.27 1.02-2.6 1.96-3.99 2.8l2.63 2.3c-.76.45-1.53.87-2.32 1.26l-2.61-2.29c-.95.48-1.91.91-2.9 1.29-6.33 2.43-12.27 2.32-16.92.18-.1-.09-.21-.17-.31-.26l-.03-.03c2 .69 4.17 1.04 6.44 1.04 3.01 0 6.2-.61 9.4-1.84 13.74-5.28 24.05-20.38 22.98-33.67-.21-2.63-.88-5.04-1.92-7.17l.09.08c3.11 2.76 4.96 6.72 5.34 11.46.78 9.67-4.75 20.35-13.23 27.16h-.01Z" fill="currentColor"></path></svg>