<svg viewBox="0 0 16 16" xmlns="http://www.w3.org/2000/svg" aria-hidden="true"><path d="M1 3.75A2.75 2.75 0 013.75 1h5.5a2.75 2.75 0 012.45 1.5H3.75c-.69 0-1.25.56-1.25 1.25v7.95A2.75 2.75 0 011 9.25v-5.5z" fill="currentColor"></path><path d="M6.75 4A2.75 2.75 0 004 6.75v5.5A2.75 2.75 0 006.75 15h5.5A2.75 2.75 0 0015 12.25v-5.5A2.75 2.75 0 0012.25 4h-5.5zM5.5 6.75c0-.69.56-1.25 1.25-1.25h5.5c.69 0 1.25.56 1.25 1.25v5.5c0 .69-.56 1.25-1.25 1.25h-5.5c-.69 0-1.25-.56-1.25-1.25v-5.5z" fill="currentColor"></path></svg>