<svg height="32" color="var(--mui-palette-primary-main)" fill="none" viewBox="0 0 33 32" xmlns="http://www.w3.org/2000/svg" aria-hidden="true"><path d="M2.76996 4.7424H0.5V7.0143H2.76996V4.7424Z" fill="#fff"></path><path d="M27.729 22.9072H25.4591V25.1791H27.729V22.9072Z" fill="#fff"></path><path d="M32.1805 10.4639C31.5921 8.32744 30.2125 6.09201 28.2965 4.17445C24.2929 0.167357 19.1386 -1.19266 16.8062 1.14177C16.5979 1.3502 16.4313 1.58469 16.2856 1.8296H16.2751L14.5935 4.58089C14.177 5.2635 13.9948 6.09722 14.0156 7.00911H11.8446V12.1052C11.8446 14.9868 10.5951 15.5079 8.55418 13.4705L4.95661 9.86983L3.35306 11.4747L6.95063 15.0754C8.9863 17.1128 8.47088 18.3686 5.58657 18.3686H0.5V20.6405H5.59178C8.47088 20.6405 8.99151 21.8911 6.95584 23.9337L3.35827 27.5344L4.96182 29.1393L8.55938 25.5386C10.5951 23.5012 11.8498 24.0171 11.8498 26.9039V32H14.1197V26.9039C14.1197 24.0223 15.3692 23.5012 17.4101 25.5386L21.0077 29.1393L22.6112 27.5344L19.0137 23.9337C16.978 21.8963 17.4934 20.6405 20.3777 20.6405H25.4695V18.4728C25.5164 18.4728 25.5684 18.478 25.6153 18.478C26.4743 18.478 27.2501 18.2904 27.9009 17.8944L30.6602 16.2113C30.9049 16.0602 31.134 15.8831 31.3422 15.6798C32.498 14.5231 32.8 12.6732 32.1961 10.4691L32.1805 10.4639ZM16.5407 13.0692L15.2131 14.6794C14.5102 14.5804 14.1145 13.7206 14.1145 12.1105V8.01479C14.3957 9.61971 15.2339 11.3914 16.5407 13.0692ZM20.3673 18.3686C18.7534 18.3686 17.8995 17.9726 17.8006 17.2691L18.7377 16.4927L18.3056 15.9716L13.6199 19.8433C13.3388 20.0725 12.9327 20.0569 12.6776 19.7964C12.4225 19.541 12.4016 19.1346 12.6359 18.8532L16.978 13.6007C17.2643 13.9394 17.5611 14.2677 17.8839 14.5908C19.9664 16.6751 22.3613 17.9986 24.4647 18.3634H20.3725L20.3673 18.3686ZM27.5364 17.3108C25.4174 18.6031 21.4763 17.2274 18.3629 14.1166C15.2495 11.0058 13.8802 7.05601 15.1714 4.93522L15.6712 4.11192C15.6139 6.65478 17.1134 9.91151 19.8363 12.642C21.7522 14.5595 23.9857 15.9404 26.1203 16.5292C26.8596 16.7324 27.5624 16.8366 28.2132 16.8366C28.2549 16.8366 28.2913 16.8366 28.3278 16.8366L27.5364 17.3212V17.3108ZM26.3025 15.8726C24.2773 15.3151 22.1531 13.9968 20.3205 12.1626C19.8311 11.6728 19.3885 11.1673 18.9824 10.6514L25.5268 2.73106C26.3129 3.27298 27.0887 3.91391 27.8228 4.65384C29.6554 6.48803 30.9726 8.61403 31.5297 10.641C32.0659 12.6003 31.8264 14.2156 30.8528 15.1952C29.8793 16.1749 28.2601 16.4146 26.3025 15.8726Z" fill="#fff"></path></svg>