<svg height="32" color="var(--mui-palette-primary-main)" fill="none" viewBox="0 0 67 62" xmlns="http://www.w3.org/2000/svg" aria-hidden="true"><path d="m62.22 30.076-2.2-.5c-.93-13.21-10.7-25.6-22.45-28.34-5.9-1.38-11.48-.16-15.75 3.42-6.03 1.89-10.4 6.85-12.07 13.66-.61.06-1.23.23-1.86.55-3.99 2.03-7.1 8.79-7.08 15.37.02 4.81 1.82 8.33 4.59 8.96l5.28 1.21c.3.07.6.1.91.1.74 0 1.49-.2 2.26-.59.41-.21.82-.49 1.21-.8l11.76 15.89c1.01 1.36 2.37 2.29 3.82 2.63.39.09.78.13 1.16.13.75 0 1.47-.18 2.12-.53l7.43-4.07c.27-.16.53-.32.77-.53l6.12-5.33c.77 1.26 1.81 2.1 3.02 2.38l5.28 1.21c.3.07.6.1.91.1.74 0 1.49-.2 2.26-.59 3.93-2 7.11-8.9 7.09-15.38-.02-4.81-1.82-8.32-4.59-8.96l.01.01ZM22.46 5.816c2.83-.84 5.87-.89 9.03-.15 7.7 1.79 14.49 7.94 18.3 15.71-.73-.33-1.49-.58-2.25-.76-2.53-.58-5.06-.26-7.12.92-.51.3-1.13.37-1.77.22-.69-.16-1.35-.55-1.91-1.14-2.01-2.09-4.41-3.51-6.94-4.09-2.51-.58-4.91-.27-6.94.85l-5.15 2.81c-.42-.28-.87-.48-1.35-.59l-.17-.04c.38-5.68 2.58-10.54 6.27-13.73v-.01Zm21.64 25.25v10.67l-1.76-.41v-10.67l1.76.41Zm2.64 6.6v-1.97l1.76.41v1.96l-1.76-.41v.01ZM35.3 26.646v14.81l-1.76-.41v-14.81l1.76.41Zm-6.17 3.7 1.76.41v4.58l-1.76-.41v-4.58Zm8.81 6.83v-5.04l1.76.41v5.04l-1.76-.41Zm19.5-8.2c-.45-.9-.97-1.79-1.6-2.63-1.19-1.6-2.6-2.92-4.14-3.93-1.37-3.22-3.25-6.2-5.48-8.8l4.64-2.52c4.32 4.96 7.26 11.42 7.82 18.15l-1.25-.29.01.02ZM19.46 7.036c-2.63 3.23-4.22 7.45-4.57 12.21l-3.81-.87c1.32-5.15 4.29-9.13 8.39-11.34h-.01Zm-6.2 35.73c-.67.34-1.3.47-1.9.42.18-.07.35-.13.54-.23 2.38-1.21 4.46-4.34 5.66-8.07l-3.62-.83c-1.2 3.73-3.28 6.86-5.66 8.07-.2.1-.4.18-.6.25l-1.99-.46c-2.12-.49-3.56-3.58-3.58-7.7-.02-6.04 2.84-12.41 6.37-14.22.58-.3 1.15-.45 1.68-.45.21 0 .42.02.62.07l5.28 1.21c2.12.49 3.56 3.58 3.58 7.7.02 6.04-2.84 12.42-6.38 14.22v.02Zm20.04 17.34c-.69.38-1.5.47-2.36.27-.14-.03-.27-.09-.4-.14l5.34-2.92c-.89-.42-1.74-1.1-2.43-2.03l-5.51 3.02s-.04-.04-.06-.07l-11.83-15.99c1.62-1.69 2.98-4.18 3.85-6.97.34.61.71 1.2 1.12 1.75l13.26 17.92c.99 1.33 2.31 2.24 3.72 2.6h-.01l-4.67 2.56h-.02Zm25.83-6.85c-.66.34-1.3.47-1.9.42.18-.07.35-.13.54-.23 2.38-1.21 4.46-4.34 5.66-8.07l-3.62-.83c-1.2 3.73-3.28 6.86-5.66 8.07-.2.1-.4.18-.6.25l-1.99-.46c-.92-.21-1.71-.91-2.32-1.98l6.37-5.54c3.7-3.22 4.53-9.08 2.48-14.44l3.85.88c2.16.49 3.56 3.51 3.58 7.7.02 6.04-2.84 12.42-6.38 14.22l-.01.01Z" fill="#fff"></path><path d="M8.2 22.536c-2.72 1.38-4.91 6.2-4.89 10.76.02 4.56 2.24 7.13 4.95 5.74 2.72-1.39 4.91-6.2 4.89-10.76-.02-4.56-2.24-7.12-4.96-5.74h.01Z" fill="#fff"></path></svg>