<svg width="16" viewBox="0 0 16 16" xmlns="http://www.w3.org/2000/svg" aria-hidden="true"><path fill-rule="evenodd" clip-rule="evenodd" d="M8 16C12.4183 16 16 12.4183 16 8C16 3.58172 12.4183 0 8 0C3.58172 0 0 3.58172 0 8C0 12.4183 3.58172 16 8 16ZM9.09015 6.4341L8.61146 4.47748C8.4557 3.84084 7.5443 3.84084 7.38854 4.47748L6.90985 6.4341C6.85488 6.65878 6.67955 6.83497 6.45402 6.89216L4.47363 7.39432C3.84212 7.55445 3.84212 8.44555 4.47363 8.60568L6.45402 9.10784C6.67955 9.16503 6.85488 9.34122 6.90985 9.5659L7.38854 11.5225C7.5443 12.1592 8.4557 12.1592 8.61146 11.5225L9.09015 9.5659C9.14512 9.34122 9.32045 9.16503 9.54598 9.10784L11.5264 8.60568C12.1579 8.44555 12.1579 7.55445 11.5264 7.39432L9.54598 6.89216C9.32045 6.83497 9.14512 6.65878 9.09015 6.4341Z" fill="#7564F5"></path></svg>