<svg height="32" color="var(--mui-palette-primary-main)" fill="none" viewBox="0 0 53 62" xmlns="http://www.w3.org/2000/svg" aria-hidden="true"><path d="m52.053 44.929-.09-5.95c0-.35-.14-1.21-1.6-1.57l-11.69-2.9v-24.4c0-1.37-1.01-2.7-2.29-3.01l-.67-.16c-.66-.16-1.3-.03-1.79.36-.51.4-.81 1.05-.81 1.78v24.86c-.58.12-1.13.31-1.6.54l-2.97-.74c-.7-.17-1.38-.05-1.91.36-.54.42-.86 1.1-.88 1.86V46.789c-.01 1.45 1.03 2.84 2.39 3.18l15.22 3.77c.2.05.4.08.6.08.48 0 .93-.15 1.3-.44.54-.42.86-1.09.88-1.86.02-1.07.83-2.51 1.74-3.08l3.07-1.93c.9-.56 1.09-1.16 1.09-1.55v-.02l.01-.01Zm-1.39-5.95.06 4.49c-.09-.03-.18-.06-.28-.09l-14.21-3.52c-1.52-.38-3.75-.02-5.08.82l-3.07 1.93c-.38.24-.73.57-1.04.95v-5.51c.52.13 1.14 0 1.75-.37l2.97-1.87c1.03-.65 2.89-.95 4.07-.66l14.21 3.52c.44.11.6.26.61.31h.01Zm-16.25-29.9c0-.33.11-.6.31-.76.18-.14.41-.18.68-.11l.67.16c.69.17 1.3.98 1.3 1.74v24.09l-1.21-.3c-.52-.13-1.12-.17-1.75-.13V9.079Zm-6.19 25.92 1.72.43-1.83 1.15c-.33.21-.63.28-.8.19-.15-.09-.25-.35-.25-.7v-.09c0-.37.14-.67.37-.85.21-.16.49-.21.8-.13h-.01Z" fill="#fff"></path><path d="M33.112 58.049c0 1.38 1.01 2.7 2.29 3.01l.67.16c.19.04.37.07.55.07.46 0 .89-.14 1.24-.42.51-.4.81-1.05.81-1.78v-4.59l-5.56-1.38v4.93Z" fill="#fff"></path><path d="M27.003 19.889v-.02l-.08-5.95c0-.35-.14-1.21-1.6-1.57l-11.69-2.9v-5.53c0-1.37-1.01-2.7-2.29-3.01l-.67-.16c-.66-.16-1.29-.03-1.79.36-.51.4-.81 1.05-.81 1.78v5.99a7 7 0 0 0-1.6.54l-2.97-.74c-.7-.17-1.38-.04-1.91.36-.56.42-.88 1.1-.89 1.86V21.729c-.01 1.45 1.03 2.84 2.39 3.18l15.22 3.77c.2.05.4.08.6.08.48 0 .93-.15 1.3-.44.54-.42.86-1.1.88-1.86.02-1.07.83-2.51 1.74-3.08l3.07-1.93c.9-.57 1.09-1.16 1.1-1.56Zm-1.39-5.97.06 4.49c-.09-.03-.18-.06-.28-.09l-14.21-3.52c-1.52-.38-3.75-.02-5.08.82l-3.07 1.93c-.38.24-.73.57-1.04.95v-5.5c.53.13 1.14 0 1.75-.38l2.97-1.87c1.03-.65 2.89-.95 4.07-.65l14.21 3.52c.45.11.6.27.61.31l.01-.01ZM9.363 2.879c0-.33.11-.6.31-.76.18-.14.41-.18.68-.11l.67.16c.69.17 1.3.98 1.3 1.74v5.22l-1.21-.3c-.52-.13-1.12-.17-1.75-.13v-5.82Zm-6.19 7.06 1.72.42-1.83 1.15c-.33.21-.64.28-.8.19-.15-.09-.25-.35-.25-.7v-.09c0-.37.14-.67.37-.84.21-.17.49-.21.8-.13h-.01Z" fill="#fff"></path><path d="M8.063 51.859c0 1.38 1.01 2.7 2.29 3.01l.67.16c.19.04.37.07.55.07.46 0 .89-.14 1.24-.42.51-.4.81-1.05.81-1.78v-23.46l-5.56-1.38v23.8Z" fill="#fff"></path></svg>