<svg height="32" color="var(--mui-palette-primary-main)" fill="none" viewBox="0 0 57 61" xmlns="http://www.w3.org/2000/svg" aria-hidden="true"><path d="m56.348 45.255-.03-8.78c0-.3-.21-.56-.5-.63l-5.4-1.25a.73.73 0 0 0-.55.13l-6.03 5a.65.65 0 0 0-.24.5v3.76l-18.81-4.34 3.85-3.04c.14-.11.22-.26.24-.44a.65.65 0 0 0-.14-.48l-3.82-4.76a.65.65 0 0 0-.91-.1l-9.89 7.81-.03.03h-.01l-6.03 5c-1.09.91-1.12 2.66-.05 3.98l9.96 12.39c.11.14.27.22.44.24h.07c.15 0 .3-.05.42-.15l6.02-4.99 2.21-1.75 14.9 3.44c.81.19 1.57 0 2.11-.45l5.69-4.72h.03c.15 0 .3-.05.42-.15l5.28-4.38c.01-.01.02-.02.03-.04.52-.45.81-1.1.8-1.85l-.03.02Zm-5.39 1.77 2.08.48-2.08 1.72v-2.2Zm-6.07-6.49 4.73-3.93.03 8.78-4.76-1.1v-3.75Zm-26.34 18.17-9.54-11.87c-.61-.75-.67-1.73-.13-2.17l4.4-3.65c.1.61.42 1.23.75 1.63l9.56 11.89-5.03 4.17h-.01Zm24.73-3.32c-.25.21-.6.27-.99.18l-13.88-3.2.29-.23c.14-.11.22-.26.24-.44a.638.638 0 0 0-.14-.48l-3.78-4.7 22.64 5.23-4.38 3.64Z" fill="#fff"></path><path d="M12.908 21.485c.07-.07.12-.14.16-.23.01-.03.02-.07.02-.1 0-.05.03-.09.03-.13v-3.75l18.6 4.34-3.67 3.04c-.27.23-.31.63-.09.91l3.83 4.77c.22.28.64.33.92.09l6.02-4.99 9.89-7.8c.48-.38.78-.94.86-1.59.09-.83-.18-1.71-.76-2.43l-9.95-12.41a.65.65 0 0 0-.91-.1l-3.81 3-4.48 3.72-14.83-3.42c-.77-.17-1.53-.02-2.08.42l-.02.02h-.01l-4.65 3.86c-.15.05-.48.17-.73.38l-6.05 5.02c-.54.44-.83 1.11-.83 1.88l.03 8.79s.02.05.02.07v.08c0 .04.04.06.05.1.02.05.05.1.08.15.04.05.09.08.14.12.03.02.05.06.08.07.03.01.05 0 .08.02.02 0 .03.02.05.03l5.4 1.25s.1.02.15.02c.15 0 .3-.05.42-.15l6.03-5s.01-.02.02-.03l-.01-.02Zm-1.12-12.27-1.87-.43 1.87-1.55v1.98Zm1.32 6.71-.02-5.08 24.86 5.74-3.85 3.04-1.11.92-19.87-4.63-.01.01Zm19.29 13.06-3.02-3.75 4.19-3.47.86-.68 3 3.74-5.03 4.17v-.01Zm1.96-23.45 3.36 4.18-6.57-1.52 3.21-2.66Zm-32.33 9.57 4.37-3.62.03 7.99-4.73 3.93-.02-7.41c0-.37.13-.68.36-.88l-.01-.01Zm4.25 10.21-3.81-.88 4.77-3.96 3.81.88-4.77 3.96Z" fill="#fff"></path></svg>